<?xml version="1.0" standalone="no"?>
<!DOCTYPE svg PUBLIC "-//W3C//DTD SVG 20010904//EN"
 "http://www.w3.org/TR/2001/REC-SVG-20010904/DTD/svg10.dtd">
<svg version="1.0" xmlns="http://www.w3.org/2000/svg"
 width="500.000000pt" height="500.000000pt" viewBox="0 0 500.000000 500.000000"
 preserveAspectRatio="xMidYMid meet">
<metadata>
Created by potrace 1.11, written by Peter Selinger 2001-2013
</metadata>
<g transform="translate(0.000000,500.000000) scale(0.100000,-0.100000)"
fill="#000000" stroke="none">
<path d="M2165 4993 c-11 -2 -67 -13 -125 -24 -672 -132 -1251 -517 -1632
-1086 -176 -261 -330 -644 -383 -948 -22 -125 -30 -500 -16 -703 19 -273 93
-526 241 -827 136 -277 282 -478 507 -695 207 -201 400 -336 657 -461 590
-285 1263 -326 1889 -113 519 176 969 527 1281 997 335 504 477 1129 391 1717
-119 814 -629 1524 -1358 1891 -290 146 -570 229 -842 249 -127 9 -571 12
-610 3z m564 -279 l61 -7 0 -772 0 -771 273 -109 c986 -393 1317 -533 1317
-555 0 -23 -220 -117 -1067 -455 l-523 -209 0 -763 0 -763 -27 -7 c-16 -4
-129 -7 -253 -7 -256 0 -386 17 -615 80 -222 62 -424 155 -624 288 -141 94
-204 146 -330 269 -286 280 -478 609 -586 1002 -43 157 -62 289 -71 475 -22
480 101 918 374 1332 247 375 636 683 1062 841 123 45 356 103 490 121 111 15
415 20 519 10z"/>
<path d="M1545 2896 c-697 -281 -882 -358 -905 -382 -13 -14 -13 -17 8 -34 12
-10 103 -52 202 -94 159 -68 1325 -536 1333 -536 2 0 7 148 11 329 7 327 -2
971 -13 971 -3 -1 -289 -115 -636 -254z"/>
</g>
</svg>
